<svg width="36" height="36" viewBox="0 0 36 36" fill="none" xmlns="http://www.w3.org/2000/svg">
<path d="M0.00219727 31.361C0.00219727 33.9249 2.08049 36.0029 4.64409 36.0029H31.3602C33.9242 36.0029 36.0022 33.9246 36.0022 31.361V4.64496C36.0022 2.08095 33.9239 0.00292969 31.3603 0.00292969H4.64423C2.08021 0.00292969 0.00219727 2.08123 0.00219727 4.64482V31.3609V31.361Z" fill="#563D7C"/>
<path d="M14.9299 15.927V10.8289H19.4174C19.8449 10.8289 20.2569 10.8645 20.6538 10.9358C21.0506 11.007 21.4018 11.1341 21.7071 11.3173C22.0122 11.5006 22.2565 11.755 22.4397 12.0805C22.6228 12.4062 22.7145 12.8234 22.7145 13.3321C22.7145 14.248 22.4397 14.9095 21.8901 15.3164C21.3407 15.7235 20.6386 15.927 19.7837 15.927H14.9299ZM10.137 7.10449V28.9014H20.6996C21.6765 28.9014 22.628 28.7793 23.554 28.535C24.48 28.2908 25.3043 27.9143 26.0268 27.4055C26.7492 26.8968 27.3242 26.2403 27.7516 25.4365C28.1791 24.6326 28.3927 23.6811 28.3927 22.5821C28.3927 21.2185 28.0619 20.0534 27.4006 19.0867C26.739 18.1199 25.7367 17.4432 24.3934 17.0565C25.3703 16.5885 26.1082 15.9881 26.6069 15.2554C27.1054 14.5227 27.3547 13.607 27.3547 12.5079C27.3547 11.4903 27.1868 10.6356 26.851 9.94357C26.5152 9.2517 26.042 8.69707 25.4314 8.27984C24.8209 7.8626 24.0883 7.56237 23.2334 7.37927C22.3787 7.19604 21.4323 7.10449 20.3943 7.10449H10.137ZM14.9299 25.1769V19.1935H20.1501C21.188 19.1935 22.0225 19.4325 22.6535 19.9109C23.2843 20.3892 23.5999 21.1879 23.5999 22.3073C23.5999 22.8773 23.5031 23.3453 23.3098 23.7116C23.1164 24.0779 22.8569 24.368 22.5313 24.5816C22.2057 24.7954 21.8291 24.948 21.4018 25.0397C20.9743 25.1311 20.5266 25.1769 20.0585 25.1769H14.9299Z" fill="white"/>
</svg>
