<svg width="32" height="36" viewBox="0 0 32 36" fill="none" xmlns="http://www.w3.org/2000/svg">
<path d="M31.909 0.00146484L29.0171 32.3977L16.0181 36.0015L3.0548 32.4028L0.166 0.00146484H31.909Z" fill="#264DE4"/>
<path d="M26.5408 30.3347L29.0121 2.65063H16.037V33.2468L26.5408 30.3347Z" fill="#2965F1"/>
<path d="M6.78841 14.668L7.14457 18.6418H16.0374V14.668H6.78841Z" fill="#EBEBEB"/>
<path d="M16.0372 6.62476H16.0235H6.0726L6.43384 10.5987H16.0372V6.62476Z" fill="#EBEBEB"/>
<path d="M16.0374 29.1229V24.9884L16.0199 24.9931L11.5942 23.798L11.3113 20.6287H9.16071H7.32211L7.87885 26.8682L16.0191 29.128L16.0374 29.1229Z" fill="#EBEBEB"/>
<path d="M20.9167 18.6418L20.4554 23.7957L16.0233 24.9919V29.1263L24.17 26.8684L24.2297 26.1971L25.1636 15.7351L25.2605 14.668L25.9779 6.62476H16.0233V10.5987H21.6229L21.2613 14.668H16.0233V18.6418H20.9167Z" fill="white"/>
</svg>
