<svg width="36" height="34" viewBox="0 0 36 34" fill="none" xmlns="http://www.w3.org/2000/svg">
<path fill-rule="evenodd" clip-rule="evenodd" d="M18.0051 0.12793C8.47408 0.12793 0.754395 7.84762 0.754395 17.3786C0.754395 25.0121 5.69241 31.4595 12.5496 33.7452C13.4121 33.8962 13.7355 33.3787 13.7355 32.9258C13.7355 32.5161 13.714 31.1576 13.714 29.7129C9.37975 30.5107 8.25845 28.6563 7.91344 27.6859C7.71937 27.19 6.87839 25.659 6.14524 25.2493C5.54146 24.9258 4.67893 24.128 6.12368 24.1064C7.48217 24.0848 8.45252 25.3571 8.77597 25.8746C10.3285 28.4838 12.8083 27.7506 13.8002 27.2978C13.9512 26.1765 14.404 25.4218 14.9 24.9905C11.0617 24.5592 7.0509 23.0714 7.0509 16.473C7.0509 14.597 7.71937 13.0444 8.8191 11.8368C8.64659 11.4056 8.04282 9.63738 8.9916 7.26541C8.9916 7.26541 10.4364 6.81258 13.7355 9.0336C15.1156 8.64546 16.5819 8.45139 18.0482 8.45139C19.5145 8.45139 20.9808 8.64546 22.3609 9.0336C25.6601 6.79101 27.1048 7.26541 27.1048 7.26541C28.0536 9.63738 27.4499 11.4056 27.2773 11.8368C28.3771 13.0444 29.0455 14.5754 29.0455 16.473C29.0455 23.0929 25.0132 24.5592 21.1749 24.9905C21.8003 25.5296 22.3393 26.5646 22.3393 28.1819C22.3393 30.4892 22.3178 32.3436 22.3178 32.9258C22.3178 33.3787 22.6412 33.9177 23.5038 33.7452C30.3178 31.4595 35.2558 24.9905 35.2558 17.3786C35.2558 7.84762 27.5361 0.12793 18.0051 0.12793V0.12793Z" fill="#1F2328"/>
</svg>
