<svg width="36" height="34" viewBox="0 0 36 34" fill="none" xmlns="http://www.w3.org/2000/svg">
<path d="M18.0026 33.6046L24.6311 13.2042H11.3739L18.0024 33.6046H18.0026Z" fill="#E24329"/>
<path d="M18.0026 33.6043L11.374 13.204H2.08441L18.0026 33.6043Z" fill="#FC6D26"/>
<path d="M2.08438 13.204L0.0701094 19.4036C-0.0194515 19.6792 -0.0194638 19.9761 0.0700741 20.2517C0.159612 20.5273 0.334104 20.7675 0.568542 20.9379L18.0026 33.6045L2.08424 13.2041L2.08438 13.204Z" fill="#FCA326"/>
<path d="M2.08441 13.2041H11.374L7.38185 0.917013C7.1764 0.284754 6.28198 0.284894 6.07666 0.917013L2.08441 13.2041Z" fill="#E24329"/>
<path d="M18.0026 33.6043L24.6311 13.204H33.9208L18.0025 33.6043H18.0026Z" fill="#FC6D26"/>
<path d="M33.9208 13.204L35.9351 19.4036C36.0246 19.6792 36.0246 19.9761 35.935 20.2517C35.8455 20.5273 35.671 20.7675 35.4365 20.9379L18.0026 33.6045L33.9208 13.2041V13.204Z" fill="#FCA326"/>
<path d="M33.9208 13.2041H24.6311L28.6234 0.917013C28.8288 0.284754 29.7232 0.284894 29.9285 0.917013L33.9208 13.2041Z" fill="#E24329"/>
</svg>
