<svg width="36" height="36" viewBox="0 0 36 36" fill="none" xmlns="http://www.w3.org/2000/svg">
<path d="M36.0029 0.00146484H0.00292969V36.0015H36.0029V0.00146484Z" fill="#F7DF1E"/>
<path d="M24.1858 28.1266C24.9109 29.3106 25.8543 30.1809 27.5229 30.1809C28.9246 30.1809 29.82 29.4803 29.82 28.5123C29.82 27.3523 28.9 26.9414 27.3572 26.2666L26.5115 25.9037C24.0703 24.8637 22.4486 23.5609 22.4486 20.8066C22.4486 18.2694 24.3818 16.338 27.4029 16.338C29.5538 16.338 31.1 17.0866 32.2143 19.0466L29.58 20.738C29 19.698 28.3743 19.2883 27.4029 19.2883C26.412 19.2883 25.784 19.9169 25.784 20.738C25.784 21.7529 26.4126 22.1637 27.864 22.7923L28.7097 23.1546C31.584 24.3872 33.2069 25.6437 33.2069 28.4689C33.2069 31.5146 30.8143 33.1832 27.6012 33.1832C24.4595 33.1832 22.4298 31.686 21.4366 29.7237L24.1858 28.1266ZM12.2355 28.4197C12.7669 29.3626 13.2503 30.1597 14.4126 30.1597C15.524 30.1597 16.2252 29.7249 16.2252 28.034V16.5312H19.608V28.0797C19.608 31.5826 17.5543 33.1769 14.5566 33.1769C11.848 33.1769 10.2795 31.7752 9.48175 30.0869L12.2355 28.4197Z" fill="black"/>
</svg>
