<svg width="36" height="36" viewBox="0 0 36 36" fill="none" xmlns="http://www.w3.org/2000/svg">
<path d="M6.375 0.36145H29.625C33.15 0.36145 36 3.21145 36 6.73645V29.0864C36 32.6114 33.15 35.4614 29.625 35.4614H6.375C2.85 35.4614 0 32.6114 0 29.0864V6.73645C0 3.21145 2.85 0.36145 6.375 0.36145Z" fill="#001E36"/>
<path d="M8.09998 24.9765V9.5415C8.09998 9.4365 8.14498 9.3765 8.24998 9.3765C8.50498 9.3765 8.74498 9.3765 9.08998 9.3615C9.44998 9.3465 9.82498 9.3465 10.23 9.3315C10.635 9.3165 11.07 9.3165 11.535 9.3015C12 9.2865 12.45 9.2865 12.9 9.2865C14.13 9.2865 15.15 9.4365 15.99 9.7515C16.74 10.0065 17.43 10.4265 18 10.9815C18.48 11.4615 18.855 12.0465 19.095 12.6915C19.32 13.3215 19.44 13.9665 19.44 14.6415C19.44 15.9315 19.14 16.9965 18.54 17.8365C17.94 18.6765 17.1 19.3065 16.125 19.6665C15.105 20.0415 13.98 20.1765 12.75 20.1765C12.39 20.1765 12.15 20.1765 12 20.1615C11.85 20.1465 11.64 20.1465 11.355 20.1465V24.9615C11.37 25.0665 11.295 25.1565 11.19 25.1715C11.175 25.1715 11.16 25.1715 11.13 25.1715H8.27998C8.15998 25.1715 8.09998 25.1115 8.09998 24.9765ZM11.37 12.2715V17.3115C11.58 17.3265 11.775 17.3415 11.955 17.3415H12.75C13.335 17.3415 13.92 17.2515 14.475 17.0715C14.955 16.9365 15.375 16.6515 15.705 16.2765C16.02 15.9015 16.17 15.3915 16.17 14.7315C16.185 14.2665 16.065 13.8015 15.825 13.3965C15.57 13.0065 15.21 12.7065 14.775 12.5415C14.22 12.3165 13.62 12.2265 13.005 12.2415C12.615 12.2415 12.27 12.2415 11.985 12.2565C11.685 12.2415 11.475 12.2565 11.37 12.2715Z" fill="#31A8FF"/>
<path d="M28.801 16.3971C28.351 16.1571 27.871 15.9921 27.361 15.8871C26.806 15.7671 26.251 15.6921 25.681 15.6921C25.381 15.6771 25.066 15.7221 24.781 15.7971C24.586 15.8421 24.421 15.9471 24.316 16.0971C24.241 16.2171 24.196 16.3671 24.196 16.5021C24.196 16.6371 24.256 16.7721 24.346 16.8921C24.481 17.0571 24.661 17.1921 24.856 17.2971C25.201 17.4771 25.561 17.6421 25.921 17.7921C26.731 18.0621 27.511 18.4371 28.231 18.8871C28.726 19.2021 29.131 19.6221 29.416 20.1321C29.656 20.6121 29.776 21.1371 29.761 21.6771C29.776 22.3821 29.566 23.0871 29.176 23.6721C28.756 24.2721 28.171 24.7371 27.496 25.0071C26.761 25.3221 25.861 25.4871 24.781 25.4871C24.091 25.4871 23.416 25.4271 22.741 25.2921C22.216 25.2021 21.691 25.0371 21.211 24.8121C21.106 24.7521 21.031 24.6471 21.046 24.5271V21.9171C21.046 21.8721 21.061 21.8121 21.106 21.7821C21.151 21.7521 21.196 21.7671 21.241 21.7971C21.826 22.1421 22.441 22.3821 23.101 22.5321C23.671 22.6821 24.271 22.7571 24.871 22.7571C25.441 22.7571 25.846 22.6821 26.116 22.5471C26.356 22.4421 26.521 22.1871 26.521 21.9171C26.521 21.7071 26.401 21.5121 26.161 21.3171C25.921 21.1221 25.426 20.8971 24.691 20.6121C23.926 20.3421 23.221 19.9821 22.561 19.5321C22.096 19.2021 21.706 18.7671 21.421 18.2571C21.181 17.7771 21.061 17.2521 21.076 16.7271C21.076 16.0821 21.256 15.4671 21.586 14.9121C21.961 14.3121 22.516 13.8321 23.161 13.5321C23.866 13.1721 24.751 13.0071 25.816 13.0071C26.431 13.0071 27.061 13.0521 27.676 13.1421C28.126 13.2021 28.561 13.3221 28.966 13.4871C29.026 13.5021 29.086 13.5621 29.116 13.6221C29.131 13.6821 29.146 13.7421 29.146 13.8021V16.2471C29.146 16.3071 29.116 16.3671 29.071 16.3971C28.936 16.4271 28.861 16.4271 28.801 16.3971Z" fill="#31A8FF"/>
</svg>
