<svg width="36" height="36" viewBox="0 0 36 36" fill="none" xmlns="http://www.w3.org/2000/svg">
<path d="M6.37819 0.360046H29.6291C33.1543 0.360046 36.0044 3.21016 36.0044 6.7353V29.0862C36.0044 32.6114 33.1543 35.4615 29.6291 35.4615H6.37819C2.85305 35.4615 0.00292969 32.6114 0.00292969 29.0862V6.7353C0.00292969 3.21016 2.85305 0.360046 6.37819 0.360046Z" fill="#470137"/>
<path d="M18.9337 9.58548L14.4335 17.0108L19.2337 24.8861C19.2637 24.9461 19.2787 25.0061 19.2637 25.0661C19.2487 25.1261 19.1887 25.0811 19.0987 25.0961H15.6636C15.4236 25.0961 15.2585 25.0811 15.1535 24.9311C14.8385 24.3011 14.5085 23.6861 14.1935 23.056C13.8785 22.441 13.5335 21.811 13.1735 21.166C12.8134 20.5209 12.4534 19.8759 12.0934 19.2159H12.0634C11.7484 19.8609 11.4034 20.5059 11.0584 21.151C10.7134 21.796 10.3683 22.441 10.0383 23.071C9.69332 23.7011 9.34831 24.3461 9.00329 24.9611C8.94329 25.1111 8.82328 25.1261 8.65828 25.1261H5.35814C5.29814 25.1261 5.25314 25.1561 5.25314 25.0811C5.23814 25.0211 5.25314 24.9611 5.28314 24.9161L9.94833 17.2658L5.40314 9.57048C5.35814 9.51048 5.34314 9.45048 5.37314 9.42048C5.40314 9.37547 5.46315 9.36047 5.52315 9.36047H8.92829C9.00329 9.36047 9.07829 9.37547 9.1383 9.39047C9.1983 9.42048 9.2433 9.46548 9.2883 9.52548C9.57331 10.1705 9.90333 10.8155 10.2483 11.4606C10.6084 12.1056 10.9534 12.7356 11.3284 13.3656C11.6884 13.9957 12.0184 14.6257 12.3334 15.2707H12.3634C12.6784 14.6107 13.0085 13.9657 13.3385 13.3356C13.6685 12.7056 14.0135 12.0756 14.3585 11.4456C14.7035 10.8155 15.0335 10.1705 15.3636 9.55548C15.3786 9.49548 15.4086 9.43548 15.4536 9.40548C15.5136 9.37547 15.5736 9.36047 15.6486 9.37547H18.8137C18.8887 9.36047 18.9637 9.40548 18.9787 9.48048C18.9937 9.49548 18.9637 9.55548 18.9337 9.58548Z" fill="#FF61F6"/>
<path d="M25.8632 25.4108C24.7531 25.4258 23.6431 25.2008 22.638 24.7357C21.693 24.3007 20.913 23.5807 20.3729 22.6957C19.8179 21.7806 19.5479 20.6406 19.5479 19.2755C19.5329 18.1655 19.8179 17.0704 20.3729 16.1104C20.943 15.1354 21.768 14.3253 22.758 13.7853C23.8081 13.2003 25.0681 12.9153 26.5532 12.9153C26.6282 12.9153 26.7332 12.9153 26.8682 12.9303C27.0032 12.9453 27.1532 12.9453 27.3332 12.9603V8.22007C27.3332 8.11507 27.3782 8.05507 27.4832 8.05507H30.5283C30.6033 8.04007 30.6633 8.10007 30.6783 8.16007C30.6783 8.17507 30.6783 8.19007 30.6783 8.19007V22.4707C30.6783 22.7407 30.6933 23.0407 30.7084 23.3707C30.7384 23.6857 30.7534 23.9857 30.7684 24.2407C30.7684 24.3457 30.7234 24.4357 30.6183 24.4807C29.8383 24.8107 29.0133 25.0508 28.1732 25.2008C27.4082 25.3358 26.6432 25.4108 25.8632 25.4108ZM27.3332 22.4107V15.8104C27.1982 15.7804 27.0632 15.7504 26.9282 15.7354C26.7632 15.7204 26.5982 15.7054 26.4332 15.7054C25.8482 15.7054 25.2631 15.8254 24.7381 16.0954C24.2281 16.3504 23.7931 16.7254 23.4631 17.2054C23.133 17.6855 22.968 18.3305 22.968 19.1105C22.953 19.6355 23.043 20.1606 23.223 20.6556C23.3731 21.0606 23.5981 21.4206 23.8981 21.7206C24.1831 21.9906 24.5281 22.2006 24.9181 22.3206C25.3231 22.4557 25.7431 22.5157 26.1632 22.5157C26.3882 22.5157 26.5982 22.5007 26.7932 22.4857C26.9882 22.5007 27.1532 22.4707 27.3332 22.4107Z" fill="#FF61F6"/>
</svg>
