<svg width="324" height="65" viewBox="0 0 324 65" fill="none" xmlns="http://www.w3.org/2000/svg">
<path d="M39.3803 9.92044H27.7175V47.8461C27.7175 50.0307 27.224 51.6514 26.242 52.7058C25.2576 53.7627 23.9869 54.2899 22.4276 54.2899C20.8436 54.2899 19.5532 53.7554 18.5589 52.6863C17.5621 51.6172 17.0662 50.0038 17.0662 47.8437V9.92044H5.39842C3.57509 9.92044 2.21809 9.52259 1.32987 8.72688C0.444111 7.93116 0 6.8816 0 5.57576C0 4.22354 0.461382 3.15445 1.38661 2.37094C2.30938 1.58743 3.64911 1.1969 5.40088 1.1969H39.3803C41.2283 1.1969 42.6026 1.60208 43.5007 2.40755C44.4012 3.21547 44.8503 4.27235 44.8503 5.57576C44.8503 6.8816 44.3938 7.93116 43.4834 8.72688C42.5705 9.52259 41.2036 9.92044 39.3803 9.92044Z" fill="#0C9B56"/>
<path d="M65.5484 31.0727H61.8055V47.8437C61.8055 50.0502 61.312 51.6783 60.3301 52.7229C59.3456 53.7676 58.0626 54.2899 56.4786 54.2899C54.7737 54.2899 53.4562 53.7432 52.5186 52.6521C51.5835 51.5611 51.1147 49.9575 51.1147 47.8437V7.67732C51.1147 5.39758 51.6304 3.74757 52.6617 2.7273C53.6931 1.70703 55.3609 1.1969 57.6654 1.1969H75.0499C77.4481 1.1969 79.5008 1.29941 81.2057 1.49956C82.9082 1.70215 84.4453 2.10977 85.8121 2.7273C87.4677 3.41562 88.9308 4.40172 90.2039 5.68315C91.4746 6.96459 92.4417 8.45594 93.1005 10.1523C93.7593 11.8511 94.0899 13.6476 94.0899 15.5466C94.0899 19.4397 92.9796 22.5493 90.7591 24.8754C88.5385 27.2016 85.1731 28.8516 80.6629 29.8255C82.5578 30.8213 84.3713 32.2956 86.0984 34.2409C87.8255 36.1887 89.3675 38.2585 90.7245 40.4553C92.079 42.652 93.135 44.634 93.8925 46.4012C94.6475 48.1708 95.025 49.3863 95.025 50.0502C95.025 50.7385 94.8029 51.422 94.3588 52.0981C93.9147 52.7742 93.3078 53.3087 92.5404 53.7017C91.7731 54.0922 90.8849 54.2899 89.8758 54.2899C88.6767 54.2899 87.6675 54.0117 86.8533 53.4527C86.0367 52.8962 85.336 52.1884 84.7487 51.3341C84.1615 50.4798 83.3621 49.2203 82.3555 47.5606L78.0723 40.509C76.5376 37.9217 75.1634 35.952 73.9519 34.5973C72.7405 33.2451 71.5093 32.3175 70.2633 31.8196C69.0149 31.3217 67.4432 31.0727 65.5484 31.0727ZM71.6672 9.13694H61.8055V23.4866H71.381C73.9495 23.4866 76.1083 23.2669 77.8601 22.8276C79.6119 22.3882 80.9491 21.6413 81.8744 20.5845C82.7971 19.5276 83.261 18.0728 83.261 16.2227C83.261 14.7753 82.8884 13.4987 82.1458 12.3955C81.4007 11.2922 80.3693 10.4672 79.0493 9.92044C77.7984 9.39811 75.3385 9.13694 71.6672 9.13694Z" fill="#0C9B56"/>
<path d="M137.971 47.4875L135.452 40.9363H113.999L111.479 47.6315C110.495 50.2432 109.656 52.0055 108.96 52.9208C108.265 53.8337 107.125 54.2926 105.541 54.2926C104.196 54.2926 103.009 53.8044 101.978 52.8329C100.947 51.859 100.431 50.7558 100.431 49.5207C100.431 48.808 100.552 48.0733 100.791 47.3142C101.03 46.5551 101.428 45.4982 101.978 44.146L115.476 10.2452C115.859 9.27134 116.323 8.10218 116.863 6.73776C117.403 5.37333 117.978 4.23834 118.59 3.33767C119.202 2.43456 120.006 1.70475 121.003 1.14824C121.997 0.591731 123.229 0.311035 124.692 0.311035C126.179 0.311035 127.421 0.58929 128.417 1.14824C129.412 1.70719 130.216 2.4248 130.828 3.3035C131.44 4.1822 131.955 5.1268 132.375 6.13487C132.794 7.14293 133.33 8.49028 133.976 10.1769L147.763 43.8629C148.844 46.4257 149.384 48.2905 149.384 49.4524C149.384 50.663 148.874 51.7736 147.855 52.7817C146.833 53.7897 145.604 54.295 144.166 54.295C143.325 54.295 142.607 54.1461 142.007 53.8508C141.408 53.553 140.904 53.1502 140.495 52.6401C140.085 52.13 139.648 51.3465 139.18 50.2896C138.708 49.2278 138.306 48.2954 137.971 47.4875ZM116.806 32.9963H132.572L124.618 11.4535L116.806 32.9963Z" fill="#0C9B56"/>
<path d="M161.296 7.25021L173.248 42.2542L185.234 7.00124C185.858 5.14865 186.324 3.86233 186.638 3.1374C186.948 2.41247 187.467 1.76077 188.184 1.17985C188.905 0.59893 189.887 0.308471 191.135 0.308471C192.048 0.308471 192.892 0.535468 193.674 0.984582C194.454 1.43614 195.066 2.03414 195.51 2.78348C195.954 3.53037 196.176 4.28459 196.176 5.04369C196.176 5.56603 196.104 6.12986 195.959 6.73519C195.816 7.34052 195.636 7.93364 195.419 8.51456C195.201 9.09548 194.987 9.69592 194.77 10.3135L181.992 44.4266C181.535 45.7324 181.079 46.9724 180.625 48.1488C180.168 49.3229 179.64 50.3554 179.041 51.2463C178.441 52.1372 177.642 52.867 176.647 53.4357C175.651 54.0044 174.434 54.29 172.993 54.29C171.553 54.29 170.336 54.0117 169.339 53.4528C168.343 52.8963 167.541 52.1591 166.929 51.2463C166.317 50.3334 165.782 49.2936 165.328 48.1293C164.871 46.9675 164.415 45.7324 163.961 44.4266L151.397 10.5966C151.18 9.97906 150.958 9.37373 150.731 8.78061C150.504 8.18749 150.312 7.54555 150.156 6.85723C150.001 6.16892 149.922 5.588 149.922 5.11203C149.922 3.90138 150.413 2.79812 151.397 1.79982C152.382 0.80396 153.618 0.303589 155.106 0.303589C156.929 0.303589 158.219 0.855218 158.974 1.95847C159.729 3.06417 160.504 4.82646 161.296 7.25021Z" fill="#0C9B56"/>
<path d="M234.224 47.4875L231.705 40.9363H210.252L207.733 47.6315C206.748 50.2432 205.91 52.0055 205.214 52.9208C204.518 53.8337 203.378 54.2926 201.794 54.2926C200.449 54.2926 199.263 53.8044 198.231 52.8329C197.2 51.859 196.684 50.7558 196.684 49.5207C196.684 48.808 196.805 48.0733 197.045 47.3142C197.284 46.5551 197.681 45.4982 198.231 44.146L211.73 10.2452C212.112 9.27134 212.576 8.10218 213.116 6.73776C213.657 5.37333 214.232 4.23834 214.844 3.33767C215.455 2.43456 216.26 1.70475 217.257 1.14824C218.251 0.591731 219.482 0.311035 220.945 0.311035C222.433 0.311035 223.674 0.58929 224.671 1.14824C225.665 1.70719 226.469 2.4248 227.081 3.3035C227.693 4.1822 228.209 5.1268 228.628 6.13487C229.048 7.14293 229.583 8.49028 230.23 10.1769L244.014 43.8555C245.095 46.4184 245.635 48.2832 245.635 49.4451C245.635 50.6557 245.125 51.7663 244.106 52.7744C243.084 53.7824 241.855 54.2877 240.417 54.2877C239.576 54.2877 238.858 54.1388 238.258 53.8434C237.659 53.5457 237.155 53.1429 236.746 52.6328C236.336 52.1227 235.899 51.3391 235.431 50.2823C234.962 49.2278 234.56 48.2954 234.224 47.4875ZM213.057 32.9963H228.823L220.869 11.4535L213.057 32.9963Z" fill="#0C9B56"/>
<path d="M253.913 47.8437V6.71566C253.913 4.57993 254.404 2.9763 255.389 1.90722C256.373 0.838132 257.644 0.303589 259.203 0.303589C260.812 0.303589 262.112 0.83325 263.109 1.88769C264.105 2.94457 264.601 4.55308 264.601 6.71322V47.8413C264.601 50.0014 264.103 51.6148 263.109 52.6839C262.112 53.753 260.812 54.2875 259.203 54.2875C257.666 54.2875 256.4 53.7481 255.406 52.6668C254.411 51.5904 253.913 49.9819 253.913 47.8437Z" fill="#0C9B56"/>
<rect x="279.319" y="0.303589" width="10.6703" height="42.681" rx="5.33513" fill="#0C9B56"/>
<rect x="322" y="32.3143" width="10.6703" height="42.681" rx="5.33513" transform="rotate(90 322 32.3143)" fill="#0C9B56"/>
<path d="M279.426 64.3251C279.425 60.8039 285.508 53.6549 300.663 53.6549M322 64.3251C322 60.8039 315.888 53.6549 300.659 53.6549L300.659 42.9846" stroke="#0C9B56" stroke-width="2.13405"/>
</svg>
