<svg width="30" height="30" viewBox="0 0 30 30" fill="none" xmlns="http://www.w3.org/2000/svg">
<path d="M14.6168 21.0189L12.9267 19.3288L11.4776 17.8797L8.58202 14.9814C7.64452 15.9189 7.44095 17.3091 7.96327 18.4448C8.03559 18.5814 8.11059 18.7181 8.19095 18.8493C8.30345 19.0181 8.43202 19.1788 8.58202 19.3288L10.5615 21.3082L12.4526 23.1993L14.6195 21.0189H14.6168Z" fill="#B3B3B3"/>
<path d="M21.2705 11.5206C21.7955 12.6563 21.5892 14.0465 20.6544 14.984L16.3071 19.3313L14.6169 21.0215L12.9267 22.7117L12.4446 23.1938L8.64636 26.9921C9.84636 28.1921 11.7749 28.2563 12.9749 27.0563L18.6749 21.3108L20.6544 19.3313C20.8044 19.184 20.933 19.0233 21.0455 18.8546C21.1258 18.7206 21.2008 18.5867 21.2731 18.4474C21.8115 17.4108 22.1142 16.2322 22.1142 14.984C22.1142 13.7358 21.8115 12.5572 21.2731 11.5206H21.2705Z" fill="#CCCCCC"/>
<path d="M0.9 10.6371L8.62768 2.9094C9.82768 1.7094 11.775 1.7094 12.975 2.9094L8.62768 7.25672L5.24732 10.6371L0.9 14.9844C-0.3 13.7844 -0.3 11.8371 0.9 10.6371Z" fill="#231815"/>
<path d="M0.9 19.3288L8.62768 27.0564C9.82768 28.2564 11.775 28.2564 12.975 27.0564L8.62768 22.7091L5.24732 19.3288L0.9 14.9814C-0.3 16.1814 -0.3 18.1288 0.9 19.3288Z" fill="#C30D23"/>
<path d="M28.4195 19.3288L20.6945 27.0564C19.4945 28.2564 17.5472 28.2564 16.3472 27.0564L20.6945 22.7091L24.0748 19.3288L28.4222 14.9814C29.6222 16.1814 29.6222 18.1288 28.4222 19.3288H28.4195Z" fill="#F5B500"/>
<path d="M21.2705 11.5213C21.1982 11.382 21.1232 11.248 21.0455 11.1168C20.933 10.948 20.8018 10.7873 20.6544 10.64L18.675 8.66054L16.8241 6.74536L16.3098 7.25965L14.6196 8.94983L16.3098 10.64L17.7589 12.0891L20.6571 14.9873C21.592 14.0498 21.7982 12.6596 21.2732 11.5239L21.2705 11.5213Z" fill="#B3B3B3"/>
<path d="M16.3071 2.90928L10.5589 8.65749L8.57945 10.637C8.42945 10.7843 8.30088 10.945 8.18838 11.1137C8.1107 11.245 8.03302 11.3816 7.9607 11.5209C7.42499 12.5575 7.11963 13.7361 7.11963 14.9843C7.11963 16.2325 7.42231 17.4111 7.9607 18.4477C7.4357 17.312 7.64195 15.9218 8.57945 14.9843L12.9268 10.637L14.6169 8.94678L16.3071 7.2566L16.8214 6.74231L20.6544 2.90928C19.4544 1.70928 17.5071 1.70928 16.3071 2.90928Z" fill="#CCCCCC"/>
<path d="M28.4196 10.6371L20.6946 2.90943C19.4946 1.70943 17.5285 1.69068 16.3285 2.89068L20.6946 7.25675L24.0749 10.6371L28.4222 14.9844C29.6222 13.7844 29.6222 11.8371 28.4222 10.6371H28.4196Z" fill="#20416F"/>
</svg>
