<svg width="30" height="30" viewBox="0 0 30 30" fill="none" xmlns="http://www.w3.org/2000/svg">
<path d="M29.055 3.30668L24.1956 1.10449C23.7736 0.860529 23.4176 1.05833 23.4176 1.54624V7.6913C22.3078 6.95773 21.0601 6.45833 19.7506 6.22365C18.4412 5.98897 17.0977 6.02396 15.8022 6.32646C13.0668 6.84534 10.6225 8.36367 8.94507 10.5858L15.3473 13.9748C16.844 11.0473 19.389 10.4012 21.2813 11.0539C21.9197 11.2877 22.469 11.7154 22.8521 12.277C23.2352 12.8387 23.4329 13.5061 23.4176 14.1858V24.3858C23.43 24.6508 23.506 24.9089 23.6391 25.1384C23.7722 25.3679 23.9586 25.5621 24.1824 25.7045L29.0352 27.9133C29.4637 28.1572 29.8066 27.9594 29.8066 27.4715L29.8725 4.65173C29.8552 4.37812 29.7718 4.11279 29.6294 3.87851C29.487 3.64424 29.2899 3.44801 29.055 3.30668Z" fill="#FF9664"/>
<path d="M15.4659 14.4231C13.9758 17.344 11.4374 17.9968 9.57143 17.344C8.93938 17.1079 8.39501 16.6835 8.01181 16.1281C7.6286 15.5728 7.42503 14.9132 7.42857 14.2385V4.63195C7.41612 4.36694 7.34014 4.1088 7.20703 3.87931C7.07392 3.64981 6.88759 3.45568 6.66374 3.31327L1.83736 1.10449C1.40879 0.860529 1.06593 1.05833 1.06593 1.54624L1 24.3594C1.01562 24.6237 1.09293 24.8806 1.22576 25.1096C1.35857 25.3386 1.5432 25.5333 1.76484 25.6781L6.62418 27.8869C7.04615 28.1308 7.38901 27.933 7.38901 27.4451V20.7001C8.49933 21.4382 9.74819 21.9427 11.0596 22.183C12.3711 22.4233 13.7177 22.3944 15.0176 22.0979C17.7526 21.5737 20.1959 20.0537 21.8747 17.8319L15.4659 14.4231Z" fill="#FF9664"/>
</svg>
