<svg width="36" height="36" viewBox="0 0 36 36" fill="none" xmlns="http://www.w3.org/2000/svg">
<path d="M6.38086 0.359985H29.6309C33.1559 0.359985 36.0059 3.20999 36.0059 6.73498V29.085C36.0059 32.61 33.1559 35.46 29.6309 35.46H6.38086C2.85586 35.46 0.00585938 32.61 0.00585938 29.085V6.73498C0.00585938 3.20999 2.85586 0.359985 6.38086 0.359985Z" fill="#330000"/>
<path d="M17.4509 21.42H11.8709L10.7309 24.945C10.7009 25.08 10.5809 25.17 10.4459 25.155H7.62586C7.46086 25.155 7.41586 25.065 7.46086 24.885L12.2909 10.98C12.3359 10.83 12.3809 10.665 12.4409 10.485C12.5009 10.17 12.5309 9.83997 12.5309 9.50997C12.5159 9.43497 12.5759 9.35997 12.6509 9.34497C12.6659 9.34497 12.6809 9.34497 12.6959 9.34497H16.5359C16.6559 9.34497 16.7159 9.38997 16.7309 9.46497L22.2059 24.915C22.2509 25.08 22.2059 25.155 22.0559 25.155H18.9209C18.8159 25.17 18.7109 25.095 18.6809 24.99L17.4509 21.42ZM12.7409 18.375H16.5509C16.4609 18.06 16.3409 17.685 16.2059 17.295C16.0709 16.89 15.9359 16.455 15.8009 16.005C15.6509 15.54 15.5159 15.09 15.3659 14.625C15.2159 14.16 15.0809 13.725 14.9609 13.29C14.8409 12.87 14.7359 12.48 14.6309 12.12H14.6009C14.4659 12.765 14.3009 13.41 14.0909 14.055C13.8659 14.775 13.6409 15.525 13.4009 16.275C13.1909 17.04 12.9659 17.745 12.7409 18.375Z" fill="#FF9A00"/>
<path d="M25.4759 11.91C24.9809 11.925 24.5009 11.73 24.1409 11.385C23.7959 11.01 23.6159 10.515 23.6309 10.005C23.6159 9.49502 23.8109 9.01502 24.1709 8.67002C24.5309 8.32502 25.0109 8.14502 25.5059 8.14502C26.0909 8.14502 26.5409 8.32502 26.8709 8.67002C27.2009 9.03002 27.3809 9.51002 27.3659 10.005C27.3809 10.515 27.2009 11.01 26.8409 11.385C26.4959 11.745 25.9859 11.94 25.4759 11.91ZM23.7959 24.93V13.38C23.7959 13.23 23.8559 13.17 23.9909 13.17H26.9609C27.0959 13.17 27.1559 13.245 27.1559 13.38V24.93C27.1559 25.095 27.0959 25.17 26.9609 25.17H24.0209C23.8709 25.17 23.7959 25.08 23.7959 24.93Z" fill="#FF9A00"/>
</svg>
