<svg width="36" height="36" viewBox="0 0 36 36" fill="none" xmlns="http://www.w3.org/2000/svg">
<path d="M12.0004 36.0016C15.3125 36.0016 18.0006 33.3135 18.0006 30.0013V24.0011H12.0004C8.68823 24.0011 6.00012 26.6892 6.00012 30.0013C6.00012 33.3135 8.68823 36.0016 12.0004 36.0016Z" fill="#0ACF83"/>
<path d="M6.00012 18.0007C6.00012 14.6885 8.68823 12.0004 12.0004 12.0004H18.0006V24.0009H12.0004C8.68823 24.0009 6.00012 21.3128 6.00012 18.0007Z" fill="#A259FF"/>
<path d="M6.00012 6.00024C6.00012 2.68811 8.68823 0 12.0004 0H18.0006V12.0005H12.0004C8.68823 12.0005 6.00012 9.31238 6.00012 6.00024Z" fill="#F24E1E"/>
<path d="M18.0007 0H24.001C27.3131 0 30.0012 2.68811 30.0012 6.00024C30.0012 9.31238 27.3131 12.0005 24.001 12.0005H18.0007V0Z" fill="#FF7262"/>
<path d="M30.0012 18.0007C30.0012 21.3128 27.3131 24.0009 24.001 24.0009C20.6888 24.0009 18.0007 21.3128 18.0007 18.0007C18.0007 14.6885 20.6888 12.0004 24.001 12.0004C27.3131 12.0004 30.0012 14.6885 30.0012 18.0007Z" fill="#1ABCFE"/>
</svg>
