<svg width="36" height="36" viewBox="0 0 36 36" fill="none" xmlns="http://www.w3.org/2000/svg">
<path d="M35.3284 16.3999L19.6098 0.681872C18.7051 -0.223384 17.237 -0.223384 16.3311 0.681872L13.0671 3.94597L17.2077 8.08664C18.1699 7.76149 19.2733 7.97962 20.0403 8.74663C20.8109 9.51857 21.0275 10.6314 20.6945 11.5967L24.6849 15.5873C25.6503 15.2547 26.7643 15.4699 27.5354 16.2422C28.613 17.3195 28.613 19.0655 27.5354 20.1434C26.4574 21.2215 24.7115 21.2215 23.633 20.1434C22.8224 19.332 22.6221 18.1415 23.0325 17.1429L19.3111 13.4214L19.3107 23.2147C19.5805 23.3481 19.8269 23.5243 20.0403 23.7365C21.1179 24.8137 21.1179 26.5598 20.0403 27.6386C18.9624 28.7161 17.2156 28.7161 16.1392 27.6386C15.0615 26.5598 15.0615 24.8138 16.1392 23.7366C16.3974 23.4782 16.7044 23.2736 17.0422 23.1345V13.25C16.7039 13.1119 16.3968 12.9071 16.1392 12.6479C15.3227 11.8325 15.1264 10.6345 15.5447 9.63192L11.4631 5.54975L0.685107 16.3272C-0.220556 17.2333 -0.220556 18.7016 0.685107 19.607L16.404 35.3253C17.309 36.2307 18.7769 36.2307 19.6829 35.3253L35.3283 19.68C36.2337 18.7744 36.2338 17.3052 35.3284 16.3999Z" fill="#DE4C36"/>
</svg>
