<svg width="36" height="36" viewBox="0 0 36 36" fill="none" xmlns="http://www.w3.org/2000/svg">
<path d="M2.11307 24.4908C2.14757 24.5688 2.18657 24.6408 2.22857 24.7128C2.24807 24.7548 2.27507 24.7983 2.29907 24.8373C2.33807 24.9153 2.38007 24.9903 2.42057 25.0653L2.65607 25.4613C2.69957 25.5348 2.74157 25.6068 2.79107 25.6788C2.87358 25.8198 2.97108 25.9578 3.05658 26.0988C3.09558 26.1573 3.13158 26.2158 3.17508 26.2743C3.34008 26.5308 3.49008 26.7438 3.65058 26.9508C3.76458 27.1053 3.87859 27.2568 4.00159 27.4083C4.04209 27.4653 4.08709 27.5223 4.12909 27.5793L4.46059 27.9813C4.50109 28.0278 4.54159 28.0818 4.58509 28.1298C4.73209 28.3068 4.8881 28.4778 5.0441 28.6518C5.0441 28.6548 5.0486 28.6578 5.0516 28.6623C5.2451 28.9053 5.4536 29.1213 5.68161 29.3133L5.68761 29.3193C5.80761 29.4423 5.92761 29.5638 6.05511 29.6838L6.20661 29.8293C6.37311 29.9853 6.53961 30.1398 6.71512 30.2898C6.71812 30.2898 6.71962 30.2928 6.72262 30.2943L6.80812 30.3693C6.96112 30.5028 7.11562 30.6348 7.27312 30.7578L7.46062 30.9153C7.58813 31.0173 7.72013 31.1133 7.85063 31.2138L8.05463 31.3698C8.19413 31.4748 8.34263 31.5769 8.48514 31.6789C8.53764 31.7164 8.59014 31.7539 8.64414 31.7884L8.68764 31.8229L9.10914 32.0989L9.28914 32.2189C9.50965 32.3599 9.72865 32.4919 9.94765 32.6239C10.0107 32.6554 10.0737 32.6899 10.1322 32.7259C10.2942 32.8189 10.4622 32.9134 10.6257 32.9989C10.7157 33.0499 10.8087 33.0934 10.9017 33.1399C11.0142 33.2029 11.1312 33.2644 11.2512 33.3274C11.2842 33.3379 11.3112 33.3484 11.3382 33.3634L11.3442 33.3574C11.3937 33.3799 11.4402 33.4039 11.4882 33.4279C11.6682 33.5179 11.8557 33.6034 12.0507 33.6874C12.0867 33.7024 12.1257 33.7174 12.1647 33.7384C12.3807 33.8329 12.5967 33.9229 12.8202 34.0099C12.8712 34.0249 12.9252 34.0504 12.9777 34.0699C13.1802 34.1464 13.3887 34.2244 13.5957 34.2979L13.6707 34.3249C13.9002 34.4029 14.1267 34.4779 14.3607 34.5484C14.4147 34.5634 14.4702 34.5829 14.5272 34.5979C14.7657 34.6699 14.9967 34.7554 15.2382 34.8004C30.6479 37.5949 35.1254 25.5813 35.1254 25.5813C31.3634 30.4563 24.6868 31.7419 18.3642 30.3108C18.1302 30.2568 17.8962 30.1818 17.6592 30.1128C17.3247 30.0182 16.9931 29.9136 16.6647 29.7993L16.8072 29.8428L16.7142 29.8068C16.5102 29.7378 16.3137 29.6613 16.1142 29.5848C16.0654 29.5641 16.0159 29.5451 15.9657 29.5278L15.9492 29.5233C15.7287 29.4348 15.5142 29.3448 15.3012 29.2503C15.2547 29.2353 15.2157 29.2143 15.1692 29.1963C14.9169 29.0864 14.6669 28.9714 14.4192 28.8513L14.6262 28.9428C14.5722 28.9189 14.5191 28.8929 14.4672 28.8648C14.3262 28.7988 14.1852 28.7238 14.0472 28.6533C13.9421 28.6035 13.8385 28.5505 13.7367 28.4943L13.7667 28.5093C13.5972 28.4193 13.4277 28.3218 13.2567 28.2303C13.2057 28.1943 13.1472 28.1643 13.0887 28.1313C12.8345 27.9836 12.5835 27.8305 12.3357 27.6723L12.4302 27.7293C12.3667 27.6901 12.3046 27.6486 12.2442 27.6048L12.2532 27.6108C12.092 27.5118 11.9339 27.4077 11.7792 27.2988C11.7282 27.2658 11.6817 27.2298 11.6292 27.1938C11.4676 27.0835 11.3085 26.9695 11.1522 26.8518L11.1882 26.8773C11.1252 26.8263 11.0577 26.7783 10.9902 26.7288C10.8582 26.6253 10.7247 26.5263 10.5927 26.4183L10.4157 26.2773C10.227 26.1272 10.042 25.9727 9.86065 25.8138L9.85915 25.8123L9.33864 25.3398L9.18864 25.1988C9.06564 25.0743 8.93964 24.9558 8.81364 24.8328L8.66814 24.6828C8.51284 24.529 8.36129 24.3714 8.21363 24.2103L8.20463 24.1998L8.17913 24.1788C8.02031 24.0044 7.86379 23.8278 7.70963 23.6493C7.66913 23.6028 7.63163 23.5533 7.58963 23.5038L7.24912 23.0913C7.09563 22.8985 6.9456 22.7029 6.79912 22.5048L6.73912 22.4208C3.23208 17.6567 1.96307 11.0822 4.7696 5.68811L2.29157 8.82164C-0.895965 13.3802 -0.50146 19.3082 1.93607 24.1488C1.99157 24.2673 2.05307 24.3783 2.11307 24.4908Z" fill="#1266A9"/>
<path d="M12.8487 17.9237L12.8322 17.8997L12.8187 17.8817L12.8487 17.9237Z" fill="black"/>
<path d="M14.5257 19.8917L14.6607 20.0267C14.8317 20.1917 15.0072 20.3522 15.1857 20.5127L15.2082 20.5322C15.3882 20.6912 15.5907 20.8577 15.7992 21.0197L15.8307 21.0437C15.8817 21.0782 15.9252 21.1187 15.9747 21.1532C16.1847 21.3152 16.3962 21.4697 16.6167 21.6242L16.6392 21.6377C16.7322 21.7052 16.8312 21.7667 16.9362 21.8327C16.9782 21.8597 17.0262 21.8957 17.0712 21.9227C17.2302 22.0247 17.3862 22.1193 17.5467 22.2168C17.5722 22.2273 17.5947 22.2408 17.6187 22.2513C17.7537 22.3338 17.9007 22.4133 18.0417 22.4853C18.0912 22.5153 18.1392 22.5378 18.1902 22.5663C18.2907 22.6158 18.3897 22.6683 18.4857 22.7193L18.5337 22.7403C18.7362 22.8393 18.9432 22.9323 19.1457 23.0238C19.1967 23.0433 19.2402 23.0598 19.2837 23.0808C19.4502 23.1528 19.6197 23.2218 19.7862 23.2848C19.8612 23.3103 19.9317 23.3403 20.0022 23.3628C20.1552 23.4198 20.3157 23.4723 20.4672 23.5248L20.6772 23.5923C20.8962 23.6598 21.1182 23.7483 21.3507 23.7843C33.2503 25.7433 36.0044 16.6277 36.0044 16.6277C33.5249 20.1782 28.7263 21.8702 23.6128 20.5487C23.3575 20.4844 23.1044 20.4118 22.8537 20.3312L22.9392 20.3552C22.8672 20.3357 22.8042 20.3132 22.7352 20.2922C22.5792 20.2382 22.4187 20.1857 22.2672 20.1302L22.0512 20.0492C21.8832 19.9817 21.7122 19.9187 21.5487 19.8467C21.4977 19.8242 21.4512 19.8092 21.4122 19.7867C21.2022 19.6922 20.9907 19.5992 20.7852 19.5002L20.4762 19.3397L20.2977 19.2497C20.1597 19.1777 20.0322 19.1027 19.9002 19.0262C19.8666 19.0104 19.834 18.9924 19.8027 18.9722L19.8072 18.9737C19.6482 18.8747 19.4832 18.7787 19.3302 18.6782C19.2792 18.6497 19.2327 18.6152 19.1847 18.5852L18.8727 18.3827C18.6567 18.2327 18.4452 18.0722 18.2307 17.9162C18.1827 17.8727 18.1362 17.8367 18.0897 17.7977C15.8412 16.0382 14.0682 13.6337 13.2267 10.9111C12.3401 8.08061 12.5351 4.90658 14.0667 2.33105L12.1841 4.98308C9.87262 8.28461 10.0031 12.6977 11.8031 16.1897C12.1316 16.8347 12.4646 17.3792 12.8321 17.8982C13.1742 18.3872 13.5522 18.9602 14.0082 19.3532C14.1702 19.5377 14.3442 19.7132 14.5257 19.8917Z" fill="#1266A9"/>
<path d="M20.5032 2.11195C19.1396 4.10247 19.0091 6.57449 19.9482 8.76901C20.9457 11.1 22.9842 12.9301 25.3602 13.7971C25.4577 13.8346 25.5522 13.8661 25.6527 13.9021L25.7847 13.9426C25.9227 13.9861 26.0622 14.0371 26.2047 14.0686C32.7763 15.3301 34.5553 10.7115 35.0338 10.032C33.4693 12.267 30.8458 12.8041 27.6267 12.0255C27.3468 11.9573 27.0713 11.8721 26.8017 11.7705L26.8512 11.787C26.5158 11.6709 26.1872 11.5357 25.8672 11.382L25.9242 11.4075C25.3092 11.1075 24.7812 10.7835 24.2907 10.4115C21.4137 8.23651 19.6347 4.09497 21.5127 0.721436L20.5032 2.11195Z" fill="#1266A9"/>
</svg>
