<svg width="36" height="36" viewBox="0 0 36 36" fill="none" xmlns="http://www.w3.org/2000/svg">
<path d="M33.1684 27.7479C31.2096 27.6984 29.6915 27.8972 28.4182 28.4439C28.0509 28.5929 27.4632 28.5931 27.4142 29.0654C27.6101 29.2642 27.6346 29.5874 27.806 29.8607C28.1002 30.3577 28.614 31.0288 29.0793 31.377C29.5934 31.7746 30.1078 32.1721 30.6463 32.5201C31.6013 33.1167 32.6788 33.4646 33.6092 34.0612C34.1481 34.4089 34.6864 34.8566 35.2252 35.2293C35.4945 35.4279 35.6658 35.7513 36.0088 35.8755V35.8011C35.8372 35.5772 35.7883 35.2542 35.617 35.0056C35.3724 34.757 35.1272 34.5333 34.8823 34.2847C34.1723 33.3156 33.2909 32.4704 32.336 31.7746C31.5525 31.2277 29.8383 30.4821 29.5201 29.5624C29.5201 29.5624 29.4955 29.5377 29.4711 29.5128C30.0097 29.4631 30.6463 29.2642 31.1607 29.1151C31.9931 28.8912 32.7521 28.9411 33.6092 28.7174C34.0009 28.6179 34.3927 28.4937 34.7844 28.3694V28.1458C34.3439 27.6984 34.0255 27.1019 33.5602 26.6793C32.3115 25.5855 30.9401 24.5169 29.5201 23.6221C28.7609 23.125 27.7814 22.8018 26.9734 22.3794C26.6799 22.2301 26.1899 22.1557 26.0187 21.9071C25.5777 21.3604 25.3329 20.6397 25.0147 19.9934C24.3048 18.6262 23.619 17.1102 23.0068 15.6687C22.5662 14.6993 22.2969 13.7298 21.7581 12.8353C19.2361 8.60991 16.4937 6.04987 12.2823 3.5394C11.3762 3.01754 10.2988 2.79382 9.14804 2.52053C8.53611 2.49553 7.92376 2.44596 7.31169 2.42096C6.91988 2.24695 6.52807 1.7748 6.18523 1.55109C4.78982 0.656214 1.19017 -1.28224 0.161803 1.2778C-0.499383 2.89325 1.14134 4.48385 1.70429 5.30429C2.12087 5.87587 2.65933 6.52202 2.95319 7.16832C3.12461 7.59061 3.17345 8.03833 3.34486 8.48562C3.73682 9.57893 4.10386 10.7971 4.61826 11.8162C4.88763 12.3381 5.18135 12.8848 5.52419 13.3571C5.72009 13.6304 6.06279 13.7548 6.13639 14.2021C5.7937 14.6993 5.76907 15.445 5.57302 16.0663C4.69158 18.8749 5.03456 22.3546 6.28318 24.4174C6.67486 25.0386 7.60541 26.406 8.85418 25.8839C9.95615 25.4366 9.71127 24.0199 10.0293 22.7771C10.1031 22.4786 10.0541 22.28 10.2009 22.0811V22.131C10.5437 22.8267 10.8864 23.498 11.2048 24.1939C11.9639 25.4116 13.286 26.6793 14.3878 27.5245C14.9757 27.9716 15.4408 28.7422 16.1755 29.0157V28.9409H16.1264C15.9794 28.7172 15.759 28.6179 15.5633 28.4438C15.1226 27.9966 14.6327 27.4498 14.29 26.9526C13.2618 25.5606 12.3556 24.0197 11.5476 22.429C11.1559 21.6587 10.813 20.8135 10.4948 20.0431C10.3477 19.7445 10.3477 19.2974 10.1029 19.1484C9.73562 19.6951 9.19701 20.1674 8.92764 20.8384C8.46265 21.9071 8.41353 23.2244 8.24211 24.5913C8.14416 24.6164 8.19299 24.5913 8.14402 24.6413C7.36067 24.4422 7.0913 23.6221 6.7973 22.9261C6.06265 21.1615 5.94021 18.3281 6.57704 16.29C6.74846 15.768 7.48311 14.1277 7.18925 13.6306C7.04232 13.1583 6.55241 12.8848 6.28318 12.5121C5.96498 12.0398 5.622 11.4435 5.40174 10.9214C4.81402 9.5295 4.52016 7.98847 3.88361 6.59659C3.58975 5.9503 3.07577 5.27943 2.65933 4.68285C2.19419 4.01184 1.67994 3.5394 1.31261 2.7441C1.19031 2.47081 1.01875 2.02338 1.21466 1.72509C1.26364 1.52623 1.36145 1.4518 1.5575 1.40208C1.87585 1.12851 2.78191 1.47651 3.09998 1.62566C4.00605 1.99824 4.76505 2.34653 5.52419 2.86839C5.86688 3.11697 6.23421 3.58926 6.67486 3.71355H7.18911C7.97274 3.88741 8.85404 3.76326 9.58869 3.98684C10.8866 4.40927 12.0617 5.03071 13.1147 5.70186C16.3224 7.76475 18.9666 10.6977 20.7542 14.2021C21.0481 14.7736 21.1704 15.2959 21.4398 15.8922C21.9542 17.1102 22.5907 18.3529 23.1047 19.5459C23.619 20.714 24.1086 21.9071 24.8432 22.8766C25.2106 23.3983 26.6796 23.6719 27.3408 23.9453C27.8305 24.1689 28.5897 24.3679 29.0303 24.6412C29.8628 25.1629 30.6952 25.7598 31.4789 26.3312C31.8707 26.6295 33.0948 27.2509 33.1684 27.7479Z" fill="#00546B"/>
<path d="M8.19278 6.14905C7.77662 6.14905 7.4829 6.19905 7.18904 6.27348V6.32319H7.23802C7.43406 6.72091 7.77662 6.99435 8.02136 7.34221C8.21741 7.73979 8.38869 8.13765 8.58473 8.53537C8.60908 8.51037 8.63357 8.48566 8.63357 8.48566C8.97655 8.23694 9.14782 7.83936 9.14782 7.24278C9.00089 7.06892 8.97641 6.89492 8.85396 6.72091C8.70717 6.4722 8.38869 6.34805 8.19278 6.14905Z" fill="#00546B"/>
</svg>
