<svg width="37" height="36" viewBox="0 0 37 36" fill="none" xmlns="http://www.w3.org/2000/svg">
<g id="SkillIcon/React">
<g id="reactjs">
<path id="Vector" d="M18.1077 21.1768C19.8605 21.1768 21.2815 19.7558 21.2815 18.0029C21.2815 16.2501 19.8605 14.8291 18.1077 14.8291C16.3548 14.8291 14.9338 16.2501 14.9338 18.0029C14.9338 19.7558 16.3548 21.1768 18.1077 21.1768Z" fill="#61DAFB"/>
<path id="Vector_2" d="M18.1078 24.5055C27.5134 24.5055 35.1382 21.5942 35.1382 18.003C35.1382 14.4118 27.5134 11.5005 18.1078 11.5005C8.70215 11.5005 1.07739 14.4118 1.07739 18.003C1.07739 21.5942 8.70215 24.5055 18.1078 24.5055Z" stroke="#61DAFB" stroke-width="1.8"/>
<path id="Vector_3" d="M12.4764 21.2542C17.1792 29.3997 23.5128 34.5473 26.6229 32.7517C29.733 30.956 28.4419 22.8972 23.7391 14.7517C19.0363 6.60617 12.7026 1.45857 9.59254 3.25418C6.48244 5.0498 7.77358 13.1087 12.4764 21.2542Z" stroke="#61DAFB" stroke-width="1.8"/>
<path id="Vector_4" d="M12.4763 14.7517C7.77348 22.8972 6.48233 30.9561 9.59243 32.7517C12.7025 34.5473 19.0362 29.3997 23.739 21.2542C28.4418 13.1087 29.7329 5.04986 26.6228 3.25424C23.5127 1.45862 17.1791 6.60622 12.4763 14.7517Z" stroke="#61DAFB" stroke-width="1.8"/>
</g>
</g>
</svg>
