<svg width="36" height="28" viewBox="0 0 36 28" fill="none" xmlns="http://www.w3.org/2000/svg">
<path d="M31.0001 16.2037C29.7441 16.2103 28.6525 16.5128 27.7385 16.96C27.4031 16.2958 27.0677 15.704 27.0086 15.27C26.9428 14.7636 26.8639 14.4546 26.9428 13.8496C27.0217 13.2446 27.3768 12.3832 27.3702 12.3174C27.3637 12.2517 27.2913 11.9426 26.568 11.936C25.8446 11.9295 25.2199 12.0741 25.1476 12.2648C25.0753 12.4555 24.9372 12.8895 24.8451 13.3367C24.7202 13.9943 23.3984 16.3418 22.6422 17.5715C22.3989 17.0915 22.1885 16.6706 22.1425 16.3353C22.0767 15.8289 21.9978 15.5199 22.0767 14.9149C22.1556 14.3099 22.5107 13.4485 22.5041 13.3827C22.4976 13.317 22.4252 13.0079 21.7019 13.0013C20.9785 12.9948 20.3538 13.1394 20.2815 13.3301C20.2092 13.5208 20.1303 13.968 19.979 14.402C19.8278 14.836 18.072 18.7552 17.6117 19.7678C17.375 20.2873 17.1712 20.7016 17.0265 20.9844C17.0265 20.9844 17.0199 21.0041 17.0002 21.037C16.8752 21.2803 16.8029 21.4118 16.8029 21.4118C16.8029 21.4118 16.8029 21.4118 16.8029 21.4184C16.7043 21.5959 16.5991 21.7603 16.5465 21.7603C16.507 21.7603 16.4347 21.2868 16.5596 20.6424C16.8226 19.2812 17.4473 17.1638 17.4408 17.0915C17.4408 17.052 17.5591 16.6838 17.0331 16.4931C16.5202 16.3024 16.336 16.618 16.29 16.618C16.244 16.618 16.2111 16.7298 16.2111 16.7298C16.2111 16.7298 16.7832 14.3494 15.1195 14.3494C14.0805 14.3494 12.647 15.487 11.9368 16.5128C11.4897 16.7561 10.5362 17.2756 9.51692 17.8345C9.12894 18.0515 8.72782 18.2685 8.353 18.4724C8.3267 18.4461 8.30039 18.4132 8.27409 18.3869C6.26189 16.2366 2.53999 14.7176 2.6978 11.8308C2.75699 10.7787 3.11866 8.01686 9.84571 4.6632C15.3825 1.93424 19.7883 2.69046 20.5511 4.36729C21.6427 6.76089 18.1904 11.2061 12.4695 11.8506C10.2863 12.0939 9.1421 11.2522 8.85276 10.9365C8.55027 10.6077 8.50424 10.588 8.39245 10.6538C8.20833 10.7524 8.3267 11.0483 8.39245 11.2193C8.56343 11.6664 9.26704 12.4555 10.4573 12.8435C11.5094 13.1854 14.0674 13.3761 17.1646 12.1793C20.63 10.8379 23.3393 7.1094 22.5436 3.98589C21.7479 0.816356 16.4873 -0.229197 11.5094 1.53969C8.55027 2.59182 5.34128 4.24893 3.03317 6.40579C0.291059 8.97036 -0.142944 11.1996 0.0346032 12.1333C0.672456 15.4475 5.24264 17.6044 7.07072 19.2023C6.97866 19.2549 6.89317 19.3009 6.82084 19.3404C5.9068 19.7941 2.42162 21.6156 1.55361 23.5423C0.567244 25.7255 1.71143 27.2906 2.46765 27.501C4.81521 28.152 7.22854 26.9815 8.52397 25.0482C9.8194 23.1149 9.66158 20.603 9.06319 19.4522C9.05661 19.439 9.05003 19.4259 9.03688 19.4127C9.27361 19.2746 9.51692 19.13 9.75365 18.9919C10.2205 18.7157 10.6808 18.4592 11.0754 18.2488C10.8518 18.8604 10.6874 19.5903 10.6085 20.6424C10.5099 21.8787 11.0162 23.4832 11.6804 24.1144C11.9763 24.3906 12.3248 24.3972 12.5484 24.3972C13.3243 24.3972 13.6728 23.7528 14.0608 22.99C14.5343 22.0562 14.9617 20.9712 14.9617 20.9712C14.9617 20.9712 14.429 23.904 15.8757 23.904C16.4018 23.904 16.9344 23.2201 17.1712 22.8716C17.1712 22.8782 17.1712 22.8782 17.1712 22.8782C17.1712 22.8782 17.1843 22.8585 17.2106 22.8124C17.2632 22.7269 17.2961 22.6743 17.2961 22.6743C17.2961 22.6743 17.2961 22.6678 17.2961 22.6612C17.5065 22.2929 17.98 21.4578 18.6836 20.0703C19.5911 18.2817 20.4656 16.0459 20.4656 16.0459C20.4656 16.0459 20.5445 16.5917 20.8142 17.4992C20.972 18.0318 21.3008 18.6171 21.5638 19.1826C21.3534 19.4785 21.2219 19.6429 21.2219 19.6429C21.2219 19.6429 21.2219 19.6429 21.2284 19.6495C21.0575 19.873 20.8733 20.1163 20.6695 20.3531C19.9527 21.2079 19.0979 22.1877 18.9795 22.4705C18.8414 22.8059 18.8743 23.0492 19.1373 23.2464C19.328 23.3911 19.67 23.4108 20.0185 23.3911C20.6629 23.3451 21.1166 23.1873 21.3402 23.0886C21.6887 22.9637 22.0964 22.773 22.4778 22.4902C23.1814 21.9707 23.6089 21.2277 23.5694 20.2479C23.5497 19.7086 23.3721 19.1694 23.1551 18.6631C23.2209 18.571 23.2801 18.479 23.3458 18.3869C24.4572 16.7627 25.3186 14.9806 25.3186 14.9806C25.3186 14.9806 25.3975 15.5264 25.6671 16.4339C25.7986 16.8942 26.0682 17.394 26.305 17.8806C25.2594 18.7289 24.615 19.7152 24.3848 20.3597C23.9705 21.5564 24.2928 22.0957 24.9043 22.2206C25.1805 22.2798 25.575 22.1483 25.8644 22.0233C26.2326 21.905 26.6666 21.7011 27.0809 21.3986C27.7845 20.8791 28.4618 20.1558 28.4224 19.176C28.4026 18.7289 28.2843 18.2883 28.1199 17.8608C29.0076 17.4926 30.1518 17.2888 31.6116 17.4597C34.7417 17.828 35.3598 19.781 35.2415 20.603C35.1231 21.4249 34.4655 21.8721 34.2485 22.0102C34.0315 22.1483 33.9592 22.1943 33.9789 22.2929C34.0052 22.4376 34.1104 22.431 34.2946 22.4047C34.551 22.3587 35.9385 21.7406 35.9977 20.2281C36.0963 18.2948 34.2551 16.184 31.0001 16.2037ZM6.85371 24.3446C5.81474 25.4756 4.36806 25.9031 3.74336 25.5414C3.07263 25.1534 3.33566 23.4832 4.61136 22.2864C5.38731 21.5564 6.38683 20.8791 7.05099 20.4649C7.20223 20.3728 7.42581 20.2413 7.69542 20.0769C7.74145 20.0506 7.76775 20.0374 7.76775 20.0374C7.82036 20.0046 7.87297 19.9717 7.92557 19.9388C8.39245 21.6485 7.9453 23.1544 6.85371 24.3446ZM14.4159 19.2023C14.0542 20.0835 13.298 22.339 12.8377 22.214C12.4432 22.1088 12.1998 20.3991 12.7588 18.7091C13.0415 17.8608 13.6399 16.8482 13.9885 16.4536C14.554 15.8223 15.1787 15.6119 15.3299 15.8684C15.5206 16.2037 14.6395 18.6499 14.4159 19.2023ZM20.6563 22.1877C20.5051 22.2666 20.3604 22.3192 20.2947 22.2798C20.2486 22.2535 20.3604 22.1483 20.3604 22.1483C20.3604 22.1483 21.1429 21.3066 21.452 20.9252C21.6296 20.7016 21.84 20.4386 22.0636 20.1427C22.0636 20.169 22.0636 20.2018 22.0636 20.2281C22.0636 21.2342 21.0903 21.9115 20.6563 22.1877ZM25.4698 21.0896C25.358 21.0107 25.3778 20.7476 25.7526 19.9256C25.8973 19.6034 26.2392 19.0642 26.8244 18.5447C26.8902 18.7552 26.9362 18.959 26.9297 19.1497C26.9231 20.4188 26.0156 20.8923 25.4698 21.0896Z" fill="#CD6799"/>
</svg>
