<svg width="36" height="34" viewBox="0 0 36 34" fill="none" xmlns="http://www.w3.org/2000/svg">
<path fill-rule="evenodd" clip-rule="evenodd" d="M7.29238 12.3511L18.0014 33.1934L0.00146484 12.3511H7.29238Z" fill="#EA6C00"/>
<path fill-rule="evenodd" clip-rule="evenodd" d="M28.7121 12.3506L18.0031 33.1929L36.0031 12.3506H28.7121Z" fill="#EA6C00"/>
<path fill-rule="evenodd" clip-rule="evenodd" d="M7.29199 12.3511H28.71L18.001 33.1934L7.29199 12.3511Z" fill="#FDAD00"/>
<path fill-rule="evenodd" clip-rule="evenodd" d="M18.001 0.800232L7.85564 1.8666L7.29199 12.3511L18.001 0.800232Z" fill="#FDD231"/>
<path fill-rule="evenodd" clip-rule="evenodd" d="M17.9998 0.800049L28.1452 1.86642L28.7088 12.3509L17.9998 0.800049Z" fill="#FDD231"/>
<path fill-rule="evenodd" clip-rule="evenodd" d="M36.0031 12.3509L28.1485 1.86646L28.7121 12.3509H36.0031Z" fill="#FDAD00"/>
<path fill-rule="evenodd" clip-rule="evenodd" d="M0.00146484 12.351L7.85602 1.86658L7.29237 12.351H0.00146484Z" fill="#FDAD00"/>
<path fill-rule="evenodd" clip-rule="evenodd" d="M18.001 0.800232L7.29199 12.3511H28.71L18.001 0.800232Z" fill="#FEEEB7"/>
</svg>
