<svg width="36" height="36" viewBox="0 0 36 36" fill="none" xmlns="http://www.w3.org/2000/svg">
<g id="SkillIcon/Tailwind Css">
<g id="tailwindcss">
<path id="Vector" d="M17.9973 7.20288C13.1972 7.20288 10.1972 9.60228 8.99709 14.4006C10.7973 12.0012 12.8974 11.1018 15.2972 11.7014C16.6666 12.0435 17.6453 13.0371 18.7288 14.1364C20.4935 15.9271 22.5359 17.9997 26.9975 17.9997C31.7972 17.9997 34.7976 15.6003 35.9973 10.8015C34.1975 13.2009 32.0975 14.1008 29.6972 13.5012C28.3282 13.1591 27.3496 12.1655 26.266 11.0662C24.5014 9.27545 22.4585 7.20288 17.9973 7.20288V7.20288ZM8.99709 17.9997C4.19739 17.9997 1.19701 20.3991 -0.00268555 25.1979C1.79709 22.7985 3.89713 21.8986 6.29743 22.4987C7.66639 22.8413 8.64506 23.8343 9.72862 24.9332C11.4933 26.724 13.5361 28.797 17.9973 28.797C22.7975 28.797 25.7974 26.3976 26.9975 21.5988C25.1973 23.9982 23.0973 24.8981 20.6974 24.298C19.328 23.9563 18.3493 22.9624 17.2658 21.8635C15.5011 20.0727 13.4587 17.9997 8.99709 17.9997V17.9997Z" fill="#06B6D4"/>
</g>
</g>
</svg>
