<svg width="36" height="36" viewBox="0 0 36 36" fill="none" xmlns="http://www.w3.org/2000/svg">
<path d="M0.34251 12.7837C0.34251 12.7837 -0.534316 12.1516 0.517875 11.3077L2.96933 9.11563C2.96933 9.11563 3.67079 8.37764 4.41244 9.02064L27.0345 26.148V34.3609C27.0345 34.3609 27.0236 35.6506 25.3686 35.5081L0.34251 12.7837Z" fill="#2489CA"/>
<path d="M6.17324 18.0784L0.342345 23.3795C0.342345 23.3795 -0.25682 23.8252 0.342345 24.6217L3.04955 27.0841C3.04955 27.0841 3.69255 27.7746 4.64245 26.9891L10.8241 22.3017L6.17324 18.0784Z" fill="#1070B3"/>
<path d="M16.4103 18.1212L27.104 9.95575L27.0346 1.78663C27.0346 1.78663 26.5779 0.00374609 25.0544 0.931723L10.8242 13.8832L16.4103 18.1212Z" fill="#0877B9"/>
<path d="M25.3697 35.5191C25.9908 36.1548 26.7434 35.9466 26.7434 35.9466L35.0769 31.8401C36.1437 31.1131 35.9939 30.2107 35.9939 30.2107V5.68873C35.9939 4.61097 34.8906 4.23832 34.8906 4.23832L27.6678 0.75658C26.0895 -0.21889 25.0555 0.931946 25.0555 0.931946C25.0555 0.931946 26.3854 -0.0252574 27.0357 1.78685V34.2112C27.0357 34.4341 26.9882 34.6533 26.8932 34.8506C26.7032 35.2342 26.2904 35.5922 25.3003 35.4424L25.3697 35.5191Z" fill="#3C99D4"/>
</svg>
